STARTFONT 2.1
FONT -hp-dotum-bold-r-normal--16-160-75-75-c-90-ksc5636.1989-0
SIZE 16 75 75
FONTBOUNDINGBOX 8 16 0 -1

STARTPROPERTIES 23
FONTNAME_REGISTRY ""
FOUNDRY "HP"
FAMILY_NAME "Dotum"
WEIGHT_NAME "Bold"
SLANT "R"
SETWIDTH_NAME "Normal"
ADD_STYLE_NAME ""
PIXEL_SIZE 16
POINT_SIZE 160
RESOLUTION_X 75
RESOLUTION_Y 75
SPACING "C"
AVERAGE_WIDTH 80
CHARSET_REGISTRY "KSC5636.1989"
CHARSET_ENCODING "0"
COPYRIGHT "Copyright (c) 1999 Samsung Hewlett-Packard Company."
WEIGHT 290
X_HEIGHT 15
QUAD_WIDTH 8
_HP_ASXVERSION "@(#) ASX 3.00 $Revision: 13.9 $ dot16a"
DEFAULT_CHAR 32
FONT_DESCENT 1
FONT_ASCENT 15
ENDPROPERTIES

CHARS 256

STARTCHAR C000
ENCODING 0
SWIDTH 401 0
DWIDTH 8 0
BBX 8 16 0 -1
BITMAP
00
00
00
00
00
00
00
00
00
00
00
00
00
00
00
00
ENDCHAR

STARTCHAR C001
ENCODING 1
SWIDTH 401 0
DWIDTH 8 0
BBX 8 16 0 -1
BITMAP
00
00
00
3E
63
C1
B5
C1
B5
DD
63
3E
00
00
00
00
ENDCHAR

STARTCHAR C002
ENCODING 2
SWIDTH 401 0
DWIDTH 8 0
BBX 8 16 0 -1
BITMAP
00
00
00
3E
7F
FF
DB
FF
DB
F7
7F
3E
00
00
00
00
ENDCHAR

STARTCHAR C003
ENCODING 3
SWIDTH 401 0
DWIDTH 8 0
BBX 8 16 0 -1
BITMAP
00
00
00
00
33
77
7F
7F
3F
1E
0C
00
00
00
00
00
ENDCHAR

STARTCHAR C004
ENCODING 4
SWIDTH 401 0
DWIDTH 8 0
BBX 8 16 0 -1
BITMAP
00
00
00
0C
1E
3F
7F
7F
3F
1E
0C
00
00
00
00
00
ENDCHAR

STARTCHAR C005
ENCODING 5
SWIDTH 401 0
DWIDTH 8 0
BBX 8 16 0 -1
BITMAP
00
00
00
0C
1E
1E
6B
7F
6B
0C
3F
00
00
00
00
00
ENDCHAR

STARTCHAR C006
ENCODING 6
SWIDTH 401 0
DWIDTH 8 0
BBX 8 16 0 -1
BITMAP
00
00
00
0C
1E
3F
7F
7F
2B
0C
3F
00
00
00
00
00
ENDCHAR

STARTCHAR C007
ENCODING 7
SWIDTH 401 0
DWIDTH 8 0
BBX 8 16 0 -1
BITMAP
00
00
00
00
00
00
0C
1E
0C
00
00
00
00
00
00
00
ENDCHAR

STARTCHAR C008
ENCODING 8
SWIDTH 401 0
DWIDTH 8 0
BBX 8 16 0 -1
BITMAP
00
00
7F
7F
7F
7F
77
73
77
7F
7F
7F
7F
7F
00
00
ENDCHAR

STARTCHAR C009
ENCODING 9
SWIDTH 401 0
DWIDTH 8 0
BBX 8 16 0 -1
BITMAP
00
00
00
00
00
1E
33
33
33
1E
00
00
00
00
00
00
ENDCHAR

STARTCHAR C010
ENCODING 10
SWIDTH 401 0
DWIDTH 8 0
BBX 8 16 0 -1
BITMAP
00
00
7F
7F
7F
73
5D
5D
5D
73
7F
7F
7F
7F
00
00
ENDCHAR

STARTCHAR C011
ENCODING 11
SWIDTH 401 0
DWIDTH 8 0
BBX 8 16 0 -1
BITMAP
00
0C
1E
2B
6D
0C
0C
1E
33
61
61
61
33
1E
00
00
ENDCHAR

STARTCHAR C012
ENCODING 12
SWIDTH 401 0
DWIDTH 8 0
BBX 8 16 0 -1
BITMAP
00
1E
33
61
61
61
33
1E
0C
0C
7F
0C
0C
0C
00
00
ENDCHAR

STARTCHAR C013
ENCODING 13
SWIDTH 401 0
DWIDTH 8 0
BBX 8 16 0 -1
BITMAP
00
00
0C
0E
0B
0D
0D
0D
0B
0C
3C
7C
78
00
00
00
ENDCHAR

STARTCHAR C014
ENCODING 14
SWIDTH 401 0
DWIDTH 8 0
BBX 8 16 0 -1
BITMAP
00
00
07
1D
17
1D
19
19
19
1B
17
37
78
70
00
00
ENDCHAR

STARTCHAR C015
ENCODING 15
SWIDTH 401 0
DWIDTH 8 0
BBX 8 16 0 -1
BITMAP
00
00
00
0C
6D
3F
33
73
33
3F
6D
0C
00
00
00
00
ENDCHAR

STARTCHAR C016
ENCODING 16
SWIDTH 401 0
DWIDTH 8 0
BBX 8 16 0 -1
BITMAP
00
00
00
60
70
78
7C
7E
7C
78
70
60
00
00
00
00
ENDCHAR

STARTCHAR C017
ENCODING 17
SWIDTH 401 0
DWIDTH 8 0
BBX 8 16 0 -1
BITMAP
00
00
00
06
0E
1E
3E
7E
3E
1E
0E
06
00
00
00
00
ENDCHAR

STARTCHAR C018
ENCODING 18
SWIDTH 401 0
DWIDTH 8 0
BBX 8 16 0 -1
BITMAP
00
0C
1E
2B
0C
0C
0C
0C
0C
0C
0C
2B
1E
0C
00
00
ENDCHAR

STARTCHAR C019
ENCODING 19
SWIDTH 401 0
DWIDTH 8 0
BBX 8 16 0 -1
BITMAP
00
00
77
77
77
77
77
33
33
33
00
33
77
33
00
00
ENDCHAR

STARTCHAR C020
ENCODING 20
SWIDTH 401 0
DWIDTH 8 0
BBX 8 16 0 -1
BITMAP
00
00
3F
7B
7B
7B
7B
3B
0B
0B
0B
0B
0B
00
00
00
ENDCHAR

STARTCHAR C021
ENCODING 21
SWIDTH 401 0
DWIDTH 8 0
BBX 8 16 0 -1
BITMAP
00
1E
33
30
30
1E
33
33
33
1E
03
03
33
1E
00
00
ENDCHAR

STARTCHAR C022
ENCODING 22
SWIDTH 401 0
DWIDTH 8 0
BBX 8 16 0 -1
BITMAP
00
00
00
00
00
00
3F
3F
00
00
00
00
00
00
00
00
ENDCHAR

STARTCHAR C023
ENCODING 23
SWIDTH 401 0
DWIDTH 8 0
BBX 8 16 0 -1
BITMAP
00
0C
1E
2B
0C
0C
0C
0C
0C
0C
2B
1E
0C
00
3F
00
ENDCHAR

STARTCHAR C024
ENCODING 24
SWIDTH 401 0
DWIDTH 8 0
BBX 8 16 0 -1
BITMAP
00
00
0C
1E
2B
0C
0C
0C
0C
0C
0C
0C
0C
0C
00
00
ENDCHAR

STARTCHAR C025
ENCODING 25
SWIDTH 401 0
DWIDTH 8 0
BBX 8 16 0 -1
BITMAP
00
00
0C
0C
0C
0C
0C
0C
0C
0C
0C
2B
1E
0C
00
00
ENDCHAR

STARTCHAR C026
ENCODING 26
SWIDTH 401 0
DWIDTH 8 0
BBX 8 16 0 -1
BITMAP
00
00
00
00
00
06
03
FF
03
06
00
00
00
00
00
00
ENDCHAR

STARTCHAR C027
ENCODING 27
SWIDTH 401 0
DWIDTH 8 0
BBX 8 16 0 -1
BITMAP
00
00
00
00
00
30
60
FF
60
30
00
00
00
00
00
00
ENDCHAR

STARTCHAR C028
ENCODING 28
SWIDTH 401 0
DWIDTH 8 0
BBX 8 16 0 -1
BITMAP
00
00
00
00
00
60
60
60
60
7F
00
00
00
00
00
00
ENDCHAR

STARTCHAR C029
ENCODING 29
SWIDTH 401 0
DWIDTH 8 0
BBX 8 16 0 -1
BITMAP
00
00
00
00
00
36
63
FF
63
36
00
00
00
00
00
00
ENDCHAR

STARTCHAR C030
ENCODING 30
SWIDTH 401 0
DWIDTH 8 0
BBX 8 16 0 -1
BITMAP
00
00
00
00
0C
0C
1E
1E
3F
3F
7F
00
00
00
00
00
ENDCHAR

STARTCHAR C031
ENCODING 31
SWIDTH 401 0
DWIDTH 8 0
BBX 8 16 0 -1
BITMAP
00
00
00
00
7F
3F
3F
1E
1E
0C
0C
00
00
00
00
00
ENDCHAR

STARTCHAR C032
ENCODING 32
SWIDTH 401 0
DWIDTH 8 0
BBX 8 16 0 -1
BITMAP
00
00
00
00
00
00
00
00
00
00
00
00
00
00
00
00
ENDCHAR

STARTCHAR C033
ENCODING 33
SWIDTH 401 0
DWIDTH 8 0
BBX 8 16 0 -1
BITMAP
00
00
1E
1E
1E
1E
1E
0C
0C
0C
00
0C
1E
0C
00
00
ENDCHAR

STARTCHAR C034
ENCODING 34
SWIDTH 401 0
DWIDTH 8 0
BBX 8 16 0 -1
BITMAP
00
00
16
16
16
00
00
00
00
00
00
00
00
00
00
00
ENDCHAR

STARTCHAR C035
ENCODING 35
SWIDTH 401 0
DWIDTH 8 0
BBX 8 16 0 -1
BITMAP
00
00
0B
0B
0B
3F
16
16
16
7F
2C
2C
2C
00
00
00
ENDCHAR

STARTCHAR C036
ENCODING 36
SWIDTH 401 0
DWIDTH 8 0
BBX 8 16 0 -1
BITMAP
00
0C
0C
1E
2B
2B
2C
1E
0B
2B
2B
1E
0C
0C
00
00
ENDCHAR

STARTCHAR C037
ENCODING 37
SWIDTH 401 0
DWIDTH 8 0
BBX 8 16 0 -1
BITMAP
00
00
33
56
56
2C
0C
18
18
36
2B
6B
66
00
00
00
ENDCHAR

STARTCHAR C038
ENCODING 38
SWIDTH 401 0
DWIDTH 8 0
BBX 8 16 0 -1
BITMAP
00
00
1C
36
36
36
1C
2D
67
66
66
66
3B
00
00
00
ENDCHAR

STARTCHAR C039
ENCODING 39
SWIDTH 401 0
DWIDTH 8 0
BBX 8 16 0 -1
BITMAP
00
00
0C
0C
0C
00
00
00
00
00
00
00
00
00
00
00
ENDCHAR

STARTCHAR C040
ENCODING 40
SWIDTH 401 0
DWIDTH 8 0
BBX 8 16 0 -1
BITMAP
00
03
06
06
0C
0C
0C
0C
0C
0C
0C
0C
06
06
03
00
ENDCHAR

STARTCHAR C041
ENCODING 41
SWIDTH 401 0
DWIDTH 8 0
BBX 8 16 0 -1
BITMAP
00
60
30
30
18
18
18
18
18
18
18
18
30
30
60
00
ENDCHAR

STARTCHAR C042
ENCODING 42
SWIDTH 401 0
DWIDTH 8 0
BBX 8 16 0 -1
BITMAP
00
00
00
00
00
0C
2B
1E
16
33
00
00
00
00
00
00
ENDCHAR

STARTCHAR C043
ENCODING 43
SWIDTH 401 0
DWIDTH 8 0
BBX 8 16 0 -1
BITMAP
00
00
00
00
00
0C
0C
3F
0C
0C
00
00
00
00
00
00
ENDCHAR

STARTCHAR C044
ENCODING 44
SWIDTH 401 0
DWIDTH 8 0
BBX 8 16 0 -1
BITMAP
00
00
00
00
00
00
00
00
00
00
00
00
70
30
60
00
ENDCHAR

STARTCHAR C045
ENCODING 45
SWIDTH 401 0
DWIDTH 8 0
BBX 8 16 0 -1
BITMAP
00
00
00
00
00
00
00
7F
00
00
00
00
00
00
00
00
ENDCHAR

STARTCHAR C046
ENCODING 46
SWIDTH 401 0
DWIDTH 8 0
BBX 8 16 0 -1
BITMAP
00
00
00
00
00
00
00
00
00
00
00
00
70
70
00
00
ENDCHAR

STARTCHAR C047
ENCODING 47
SWIDTH 401 0
DWIDTH 8 0
BBX 8 16 0 -1
BITMAP
00
00
01
03
03
06
06
0C
0C
18
18
30
30
60
00
00
ENDCHAR

STARTCHAR C048
ENCODING 48
SWIDTH 401 0
DWIDTH 8 0
BBX 8 16 0 -1
BITMAP
00
00
3E
63
63
67
6B
5B
73
63
63
63
3E
00
00
00
ENDCHAR

STARTCHAR C049
ENCODING 49
SWIDTH 401 0
DWIDTH 8 0
BBX 8 16 0 -1
BITMAP
00
00
0C
3C
0C
0C
0C
0C
0C
0C
0C
0C
3F
00
00
00
ENDCHAR

STARTCHAR C050
ENCODING 50
SWIDTH 401 0
DWIDTH 8 0
BBX 8 16 0 -1
BITMAP
00
00
3E
63
63
03
06
0C
18
30
60
60
7F
00
00
00
ENDCHAR

STARTCHAR C051
ENCODING 51
SWIDTH 401 0
DWIDTH 8 0
BBX 8 16 0 -1
BITMAP
00
00
3E
63
63
03
06
1E
03
03
03
63
3E
00
00
00
ENDCHAR

STARTCHAR C052
ENCODING 52
SWIDTH 401 0
DWIDTH 8 0
BBX 8 16 0 -1
BITMAP
00
00
06
0E
16
16
36
36
66
7F
06
06
0F
00
00
00
ENDCHAR

STARTCHAR C053
ENCODING 53
SWIDTH 401 0
DWIDTH 8 0
BBX 8 16 0 -1
BITMAP
00
00
7F
60
60
60
7E
63
03
03
03
63
3E
00
00
00
ENDCHAR

STARTCHAR C054
ENCODING 54
SWIDTH 401 0
DWIDTH 8 0
BBX 8 16 0 -1
BITMAP
00
00
3E
63
60
60
7E
63
63
63
63
63
3E
00
00
00
ENDCHAR

STARTCHAR C055
ENCODING 55
SWIDTH 401 0
DWIDTH 8 0
BBX 8 16 0 -1
BITMAP
00
00
7F
63
63
03
06
06
0C
0C
18
18
18
00
00
00
ENDCHAR

STARTCHAR C056
ENCODING 56
SWIDTH 401 0
DWIDTH 8 0
BBX 8 16 0 -1
BITMAP
00
00
3E
63
63
63
63
3E
63
63
63
63
3E
00
00
00
ENDCHAR

STARTCHAR C057
ENCODING 57
SWIDTH 401 0
DWIDTH 8 0
BBX 8 16 0 -1
BITMAP
00
00
3E
63
63
63
63
3F
03
03
63
63
3E
00
00
00
ENDCHAR

STARTCHAR C058
ENCODING 58
SWIDTH 401 0
DWIDTH 8 0
BBX 8 16 0 -1
BITMAP
00
00
00
00
1C
1C
00
00
00
00
1C
1C
00
00
00
00
ENDCHAR

STARTCHAR C059
ENCODING 59
SWIDTH 401 0
DWIDTH 8 0
BBX 8 16 0 -1
BITMAP
00
00
00
00
1C
1C
00
00
00
00
1C
0C
18
00
00
00
ENDCHAR

STARTCHAR C060
ENCODING 60
SWIDTH 401 0
DWIDTH 8 0
BBX 8 16 0 -1
BITMAP
00
00
00
03
06
0C
18
30
18
0C
06
03
00
00
00
00
ENDCHAR

STARTCHAR C061
ENCODING 61
SWIDTH 401 0
DWIDTH 8 0
BBX 8 16 0 -1
BITMAP
00
00
00
00
00
00
7F
00
7F
00
00
00
00
00
00
00
ENDCHAR

STARTCHAR C062
ENCODING 62
SWIDTH 401 0
DWIDTH 8 0
BBX 8 16 0 -1
BITMAP
00
00
00
60
30
18
0C
06
0C
18
30
60
00
00
00
00
ENDCHAR

STARTCHAR C063
ENCODING 63
SWIDTH 401 0
DWIDTH 8 0
BBX 8 16 0 -1
BITMAP
00
00
3E
63
63
03
06
0C
18
18
00
00
1C
1C
00
00
ENDCHAR

STARTCHAR C064
ENCODING 64
SWIDTH 401 0
DWIDTH 8 0
BBX 8 16 0 -1
BITMAP
00
00
1E
33
61
6D
55
55
55
6B
60
30
1F
00
00
00
ENDCHAR

STARTCHAR C065
ENCODING 65
SWIDTH 401 0
DWIDTH 8 0
BBX 8 16 0 -1
BITMAP
00
00
0C
0C
0C
16
16
16
33
3F
33
61
61
00
00
00
ENDCHAR

STARTCHAR C066
ENCODING 66
SWIDTH 401 0
DWIDTH 8 0
BBX 8 16 0 -1
BITMAP
00
00
3F
31
31
31
31
3F
31
31
31
31
3F
00
00
00
ENDCHAR

STARTCHAR C067
ENCODING 67
SWIDTH 401 0
DWIDTH 8 0
BBX 8 16 0 -1
BITMAP
00
00
1E
33
61
60
60
60
60
60
61
33
1E
00
00
00
ENDCHAR

STARTCHAR C068
ENCODING 68
SWIDTH 401 0
DWIDTH 8 0
BBX 8 16 0 -1
BITMAP
00
00
3E
33
31
31
31
31
31
31
31
33
3E
00
00
00
ENDCHAR

STARTCHAR C069
ENCODING 69
SWIDTH 401 0
DWIDTH 8 0
BBX 8 16 0 -1
BITMAP
00
00
3F
30
30
30
30
3F
30
30
30
30
3F
00
00
00
ENDCHAR

STARTCHAR C070
ENCODING 70
SWIDTH 401 0
DWIDTH 8 0
BBX 8 16 0 -1
BITMAP
00
00
3F
30
30
30
30
3F
30
30
30
30
30
00
00
00
ENDCHAR

STARTCHAR C071
ENCODING 71
SWIDTH 401 0
DWIDTH 8 0
BBX 8 16 0 -1
BITMAP
00
00
1E
33
61
60
60
67
61
61
61
33
1E
00
00
00
ENDCHAR

STARTCHAR C072
ENCODING 72
SWIDTH 401 0
DWIDTH 8 0
BBX 8 16 0 -1
BITMAP
00
00
31
31
31
31
31
3F
31
31
31
31
31
00
00
00
ENDCHAR

STARTCHAR C073
ENCODING 73
SWIDTH 401 0
DWIDTH 8 0
BBX 8 16 0 -1
BITMAP
00
00
3F
0C
0C
0C
0C
0C
0C
0C
0C
0C
3F
00
00
00
ENDCHAR

STARTCHAR C074
ENCODING 74
SWIDTH 401 0
DWIDTH 8 0
BBX 8 16 0 -1
BITMAP
00
00
1F
06
06
06
06
06
06
06
66
66
3C
00
00
00
ENDCHAR

STARTCHAR C075
ENCODING 75
SWIDTH 401 0
DWIDTH 8 0
BBX 8 16 0 -1
BITMAP
00
00
31
33
33
36
2C
3C
36
33
33
31
31
00
00
00
ENDCHAR

STARTCHAR C076
ENCODING 76
SWIDTH 401 0
DWIDTH 8 0
BBX 8 16 0 -1
BITMAP
00
00
30
30
30
30
30
30
30
30
30
30
3F
00
00
00
ENDCHAR

STARTCHAR C077
ENCODING 77
SWIDTH 401 0
DWIDTH 8 0
BBX 8 16 0 -1
BITMAP
00
00
61
73
73
55
55
6D
6D
6D
61
61
61
00
00
00
ENDCHAR

STARTCHAR C078
ENCODING 78
SWIDTH 401 0
DWIDTH 8 0
BBX 8 16 0 -1
BITMAP
00
00
31
31
39
39
2D
2D
35
35
33
33
31
00
00
00
ENDCHAR

STARTCHAR C079
ENCODING 79
SWIDTH 401 0
DWIDTH 8 0
BBX 8 16 0 -1
BITMAP
00
00
1C
36
63
63
63
63
63
63
63
36
1C
00
00
00
ENDCHAR

STARTCHAR C080
ENCODING 80
SWIDTH 401 0
DWIDTH 8 0
BBX 8 16 0 -1
BITMAP
00
00
3F
31
31
31
31
3F
30
30
30
30
30
00
00
00
ENDCHAR

STARTCHAR C081
ENCODING 81
SWIDTH 401 0
DWIDTH 8 0
BBX 8 16 0 -1
BITMAP
00
00
1C
36
63
63
63
63
63
5B
77
36
1B
00
00
00
ENDCHAR

STARTCHAR C082
ENCODING 82
SWIDTH 401 0
DWIDTH 8 0
BBX 8 16 0 -1
BITMAP
00
00
3F
31
31
31
31
3F
36
33
33
31
31
00
00
00
ENDCHAR

STARTCHAR C083
ENCODING 83
SWIDTH 401 0
DWIDTH 8 0
BBX 8 16 0 -1
BITMAP
00
00
3E
63
63
60
30
1C
06
03
63
63
3E
00
00
00
ENDCHAR

STARTCHAR C084
ENCODING 84
SWIDTH 401 0
DWIDTH 8 0
BBX 8 16 0 -1
BITMAP
00
00
7F
0C
0C
0C
0C
0C
0C
0C
0C
0C
0C
00
00
00
ENDCHAR

STARTCHAR C085
ENCODING 85
SWIDTH 401 0
DWIDTH 8 0
BBX 8 16 0 -1
BITMAP
00
00
31
31
31
31
31
31
31
31
31
31
1F
00
00
00
ENDCHAR

STARTCHAR C086
ENCODING 86
SWIDTH 401 0
DWIDTH 8 0
BBX 8 16 0 -1
BITMAP
00
00
61
61
33
33
33
16
16
16
0C
0C
0C
00
00
00
ENDCHAR

STARTCHAR C087
ENCODING 87
SWIDTH 401 0
DWIDTH 8 0
BBX 8 16 0 -1
BITMAP
00
00
61
61
61
61
6D
2B
2B
2B
16
16
16
00
00
00
ENDCHAR

STARTCHAR C088
ENCODING 88
SWIDTH 401 0
DWIDTH 8 0
BBX 8 16 0 -1
BITMAP
00
00
73
33
33
16
16
0C
16
16
33
33
73
00
00
00
ENDCHAR

STARTCHAR C089
ENCODING 89
SWIDTH 401 0
DWIDTH 8 0
BBX 8 16 0 -1
BITMAP
00
00
61
61
33
33
16
16
0C
0C
0C
0C
0C
00
00
00
ENDCHAR

STARTCHAR C090
ENCODING 90
SWIDTH 401 0
DWIDTH 8 0
BBX 8 16 0 -1
BITMAP
00
00
7F
03
03
06
06
0C
18
18
30
60
7F
00
00
00
ENDCHAR

STARTCHAR C091
ENCODING 91
SWIDTH 401 0
DWIDTH 8 0
BBX 8 16 0 -1
BITMAP
00
0F
0C
0C
0C
0C
0C
0C
0C
0C
0C
0C
0C
0C
0F
00
ENDCHAR

STARTCHAR C092
ENCODING 92
SWIDTH 401 0
DWIDTH 8 0
BBX 8 16 0 -1
BITMAP
00
00
60
30
30
18
18
0C
0C
06
06
03
03
01
00
00
ENDCHAR

STARTCHAR C093
ENCODING 93
SWIDTH 401 0
DWIDTH 8 0
BBX 8 16 0 -1
BITMAP
00
78
18
18
18
18
18
18
18
18
18
18
18
18
78
00
ENDCHAR

STARTCHAR C094
ENCODING 94
SWIDTH 401 0
DWIDTH 8 0
BBX 8 16 0 -1
BITMAP
0C
16
00
00
00
00
00
00
00
00
00
00
00
00
00
00
ENDCHAR

STARTCHAR C095
ENCODING 95
SWIDTH 401 0
DWIDTH 8 0
BBX 8 16 0 -1
BITMAP
00
00
00
00
00
00
00
00
00
00
00
00
00
00
FF
00
ENDCHAR

STARTCHAR C096
ENCODING 96
SWIDTH 401 0
DWIDTH 8 0
BBX 8 16 0 -1
BITMAP
00
1C
06
00
00
00
00
00
00
00
00
00
00
00
00
00
ENDCHAR

STARTCHAR C097
ENCODING 97
SWIDTH 401 0
DWIDTH 8 0
BBX 8 16 0 -1
BITMAP
00
00
00
00
00
3E
63
03
3F
63
63
63
3D
00
00
00
ENDCHAR

STARTCHAR C098
ENCODING 98
SWIDTH 401 0
DWIDTH 8 0
BBX 8 16 0 -1
BITMAP
00
00
30
30
30
3E
33
31
31
31
31
33
3E
00
00
00
ENDCHAR

STARTCHAR C099
ENCODING 99
SWIDTH 401 0
DWIDTH 8 0
BBX 8 16 0 -1
BITMAP
00
00
00
00
00
3E
63
60
60
60
60
63
3E
00
00
00
ENDCHAR

STARTCHAR C100
ENCODING 100
SWIDTH 401 0
DWIDTH 8 0
BBX 8 16 0 -1
BITMAP
00
00
03
03
03
3B
67
63
63
63
63
67
3B
00
00
00
ENDCHAR

STARTCHAR C101
ENCODING 101
SWIDTH 401 0
DWIDTH 8 0
BBX 8 16 0 -1
BITMAP
00
00
00
00
00
3E
63
63
7F
60
60
63
3E
00
00
00
ENDCHAR

STARTCHAR C102
ENCODING 102
SWIDTH 401 0
DWIDTH 8 0
BBX 8 16 0 -1
BITMAP
00
00
0E
1B
18
18
7E
18
18
18
18
18
18
00
00
00
ENDCHAR

STARTCHAR C103
ENCODING 103
SWIDTH 401 0
DWIDTH 8 0
BBX 8 16 0 -1
BITMAP
00
00
00
00
03
3E
63
63
3E
60
3F
61
61
61
3F
00
ENDCHAR

STARTCHAR C104
ENCODING 104
SWIDTH 401 0
DWIDTH 8 0
BBX 8 16 0 -1
BITMAP
00
00
30
30
30
2F
39
31
31
31
31
31
31
00
00
00
ENDCHAR

STARTCHAR C105
ENCODING 105
SWIDTH 401 0
DWIDTH 8 0
BBX 8 16 0 -1
BITMAP
00
00
0C
0C
00
3C
0C
0C
0C
0C
0C
0C
0C
00
00
00
ENDCHAR

STARTCHAR C106
ENCODING 106
SWIDTH 401 0
DWIDTH 8 0
BBX 8 16 0 -1
BITMAP
00
00
06
06
00
1E
06
06
06
06
06
06
06
66
3C
00
ENDCHAR

STARTCHAR C107
ENCODING 107
SWIDTH 401 0
DWIDTH 8 0
BBX 8 16 0 -1
BITMAP
00
00
30
30
30
33
36
2C
38
2C
36
33
31
00
00
00
ENDCHAR

STARTCHAR C108
ENCODING 108
SWIDTH 401 0
DWIDTH 8 0
BBX 8 16 0 -1
BITMAP
00
00
3C
0C
0C
0C
0C
0C
0C
0C
0C
0C
0C
00
00
00
ENDCHAR

STARTCHAR C109
ENCODING 109
SWIDTH 401 0
DWIDTH 8 0
BBX 8 16 0 -1
BITMAP
00
00
00
00
00
BF
6D
6D
6D
6D
6D
6D
6D
00
00
00
ENDCHAR

STARTCHAR C110
ENCODING 110
SWIDTH 401 0
DWIDTH 8 0
BBX 8 16 0 -1
BITMAP
00
00
00
00
00
5E
33
33
33
33
33
33
33
00
00
00
ENDCHAR

STARTCHAR C111
ENCODING 111
SWIDTH 401 0
DWIDTH 8 0
BBX 8 16 0 -1
BITMAP
00
00
00
00
00
3E
63
63
63
63
63
63
3E
00
00
00
ENDCHAR

STARTCHAR C112
ENCODING 112
SWIDTH 401 0
DWIDTH 8 0
BBX 8 16 0 -1
BITMAP
00
00
00
00
00
3E
33
31
31
31
33
3E
30
30
30
00
ENDCHAR

STARTCHAR C113
ENCODING 113
SWIDTH 401 0
DWIDTH 8 0
BBX 8 16 0 -1
BITMAP
00
00
00
00
00
3B
67
63
63
63
67
3B
03
03
03
00
ENDCHAR

STARTCHAR C114
ENCODING 114
SWIDTH 401 0
DWIDTH 8 0
BBX 8 16 0 -1
BITMAP
00
00
00
00
00
37
1D
18
18
18
18
18
18
00
00
00
ENDCHAR

STARTCHAR C115
ENCODING 115
SWIDTH 401 0
DWIDTH 8 0
BBX 8 16 0 -1
BITMAP
00
00
00
00
00
3E
63
60
38
0E
03
63
3E
00
00
00
ENDCHAR

STARTCHAR C116
ENCODING 116
SWIDTH 401 0
DWIDTH 8 0
BBX 8 16 0 -1
BITMAP
00
00
00
18
18
18
7F
18
18
18
18
19
0F
00
00
00
ENDCHAR

STARTCHAR C117
ENCODING 117
SWIDTH 401 0
DWIDTH 8 0
BBX 8 16 0 -1
BITMAP
00
00
00
00
00
33
33
33
33
33
33
33
1D
00
00
00
ENDCHAR

STARTCHAR C118
ENCODING 118
SWIDTH 401 0
DWIDTH 8 0
BBX 8 16 0 -1
BITMAP
00
00
00
00
00
61
61
33
33
16
16
0C
0C
00
00
00
ENDCHAR

STARTCHAR C119
ENCODING 119
SWIDTH 401 0
DWIDTH 8 0
BBX 8 16 0 -1
BITMAP
00
00
00
00
00
63
63
63
5B
5B
36
36
36
00
00
00
ENDCHAR

STARTCHAR C120
ENCODING 120
SWIDTH 401 0
DWIDTH 8 0
BBX 8 16 0 -1
BITMAP
00
00
00
00
00
33
33
16
0C
0C
16
33
33
00
00
00
ENDCHAR

STARTCHAR C121
ENCODING 121
SWIDTH 401 0
DWIDTH 8 0
BBX 8 16 0 -1
BITMAP
00
00
00
00
00
61
61
33
33
16
16
0E
0C
6C
38
00
ENDCHAR

STARTCHAR C122
ENCODING 122
SWIDTH 401 0
DWIDTH 8 0
BBX 8 16 0 -1
BITMAP
00
00
00
00
00
7F
03
06
0C
18
30
60
7F
00
00
00
ENDCHAR

STARTCHAR C123
ENCODING 123
SWIDTH 401 0
DWIDTH 8 0
BBX 8 16 0 -1
BITMAP
03
06
06
06
06
06
06
0C
06
06
06
06
06
06
03
00
ENDCHAR

STARTCHAR C124
ENCODING 124
SWIDTH 401 0
DWIDTH 8 0
BBX 8 16 0 -1
BITMAP
0C
0C
0C
0C
0C
0C
0C
0C
0C
0C
0C
0C
0C
0C
0C
00
ENDCHAR

STARTCHAR C125
ENCODING 125
SWIDTH 401 0
DWIDTH 8 0
BBX 8 16 0 -1
BITMAP
60
30
30
30
30
30
30
18
30
30
30
30
30
30
60
00
ENDCHAR

STARTCHAR C126
ENCODING 126
SWIDTH 401 0
DWIDTH 8 0
BBX 8 16 0 -1
BITMAP
16
2C
00
00
00
00
00
00
00
00
00
00
00
00
00
00
ENDCHAR

STARTCHAR C127
ENCODING 127
SWIDTH 401 0
DWIDTH 8 0
BBX 8 16 0 -1
BITMAP
00
00
00
00
00
0C
16
16
33
33
7F
00
00
00
00
00
ENDCHAR

STARTCHAR C128
ENCODING 128
SWIDTH 401 0
DWIDTH 8 0
BBX 8 16 0 -1
BITMAP
00
00
1E
33
60
60
60
60
60
60
60
33
1E
06
1C
00
ENDCHAR

STARTCHAR C129
ENCODING 129
SWIDTH 401 0
DWIDTH 8 0
BBX 8 16 0 -1
BITMAP
00
00
33
33
00
00
33
33
33
33
33
33
1D
00
00
00
ENDCHAR

STARTCHAR C130
ENCODING 130
SWIDTH 401 0
DWIDTH 8 0
BBX 8 16 0 -1
BITMAP
00
0E
18
00
00
3E
63
63
7F
60
60
63
3E
00
00
00
ENDCHAR

STARTCHAR C131
ENCODING 131
SWIDTH 401 0
DWIDTH 8 0
BBX 8 16 0 -1
BITMAP
00
1C
36
00
00
3E
63
03
3F
63
63
63
3D
00
00
00
ENDCHAR

STARTCHAR C132
ENCODING 132
SWIDTH 401 0
DWIDTH 8 0
BBX 8 16 0 -1
BITMAP
00
00
33
33
00
3E
63
03
3F
63
63
63
3D
00
00
00
ENDCHAR

STARTCHAR C133
ENCODING 133
SWIDTH 401 0
DWIDTH 8 0
BBX 8 16 0 -1
BITMAP
00
1C
06
00
00
3E
63
03
3F
63
63
63
3D
00
00
00
ENDCHAR

STARTCHAR C134
ENCODING 134
SWIDTH 401 0
DWIDTH 8 0
BBX 8 16 0 -1
BITMAP
00
0C
16
0C
00
3E
63
03
3F
63
63
63
3D
00
00
00
ENDCHAR

STARTCHAR C135
ENCODING 135
SWIDTH 401 0
DWIDTH 8 0
BBX 8 16 0 -1
BITMAP
00
00
00
00
00
3E
63
60
60
60
60
63
3E
0C
18
00
ENDCHAR

STARTCHAR C136
ENCODING 136
SWIDTH 401 0
DWIDTH 8 0
BBX 8 16 0 -1
BITMAP
00
1C
36
00
00
3E
63
63
7F
60
60
63
3E
00
00
00
ENDCHAR

STARTCHAR C137
ENCODING 137
SWIDTH 401 0
DWIDTH 8 0
BBX 8 16 0 -1
BITMAP
00
00
36
36
00
3E
63
63
7F
60
60
63
3E
00
00
00
ENDCHAR

STARTCHAR C138
ENCODING 138
SWIDTH 401 0
DWIDTH 8 0
BBX 8 16 0 -1
BITMAP
00
1C
06
00
00
3E
63
63
7F
60
60
63
3E
00
00
00
ENDCHAR

STARTCHAR C139
ENCODING 139
SWIDTH 401 0
DWIDTH 8 0
BBX 8 16 0 -1
BITMAP
00
00
36
36
00
3C
0C
0C
0C
0C
0C
0C
0C
00
00
00
ENDCHAR

STARTCHAR C140
ENCODING 140
SWIDTH 401 0
DWIDTH 8 0
BBX 8 16 0 -1
BITMAP
00
1C
36
00
00
3C
0C
0C
0C
0C
0C
0C
0C
00
00
00
ENDCHAR

STARTCHAR C141
ENCODING 141
SWIDTH 401 0
DWIDTH 8 0
BBX 8 16 0 -1
BITMAP
00
38
0C
00
00
3C
0C
0C
0C
0C
0C
0C
0C
00
00
00
ENDCHAR

STARTCHAR C142
ENCODING 142
SWIDTH 401 0
DWIDTH 8 0
BBX 8 16 0 -1
BITMAP
1B
1B
00
0C
0C
0C
16
16
33
3F
33
61
61
00
00
00
ENDCHAR

STARTCHAR C143
ENCODING 143
SWIDTH 401 0
DWIDTH 8 0
BBX 8 16 0 -1
BITMAP
0C
16
0C
00
0C
0C
16
16
33
3F
33
61
61
00
00
00
ENDCHAR

STARTCHAR C144
ENCODING 144
SWIDTH 401 0
DWIDTH 8 0
BBX 8 16 0 -1
BITMAP
0E
18
3F
30
30
30
30
3E
30
30
30
30
3F
00
00
00
ENDCHAR

STARTCHAR C145
ENCODING 145
SWIDTH 401 0
DWIDTH 8 0
BBX 8 16 0 -1
BITMAP
00
00
00
00
00
37
6D
0D
3F
6C
6C
6D
37
00
00
00
ENDCHAR

STARTCHAR C146
ENCODING 146
SWIDTH 401 0
DWIDTH 8 0
BBX 8 16 0 -1
BITMAP
00
00
1F
1C
2C
2C
2C
2F
7C
6C
6C
6C
6F
00
00
00
ENDCHAR

STARTCHAR C147
ENCODING 147
SWIDTH 401 0
DWIDTH 8 0
BBX 8 16 0 -1
BITMAP
00
0E
1B
00
00
1E
33
61
61
61
61
33
1E
00
00
00
ENDCHAR

STARTCHAR C148
ENCODING 148
SWIDTH 401 0
DWIDTH 8 0
BBX 8 16 0 -1
BITMAP
00
00
1B
1B
00
1E
33
61
61
61
61
33
1E
00
00
00
ENDCHAR

STARTCHAR C149
ENCODING 149
SWIDTH 401 0
DWIDTH 8 0
BBX 8 16 0 -1
BITMAP
00
1C
06
00
00
1E
33
61
61
61
61
33
1E
00
00
00
ENDCHAR

STARTCHAR C150
ENCODING 150
SWIDTH 401 0
DWIDTH 8 0
BBX 8 16 0 -1
BITMAP
00
1C
36
00
00
33
33
33
33
33
33
33
1D
00
00
00
ENDCHAR

STARTCHAR C151
ENCODING 151
SWIDTH 401 0
DWIDTH 8 0
BBX 8 16 0 -1
BITMAP
00
1C
06
00
00
33
33
33
33
33
33
33
1D
00
00
00
ENDCHAR

STARTCHAR C152
ENCODING 152
SWIDTH 401 0
DWIDTH 8 0
BBX 8 16 0 -1
BITMAP
00
00
33
33
00
33
33
33
16
16
0C
0C
18
58
30
00
ENDCHAR

STARTCHAR C153
ENCODING 153
SWIDTH 401 0
DWIDTH 8 0
BBX 8 16 0 -1
BITMAP
33
00
1E
33
61
61
61
61
61
61
61
33
1E
00
00
00
ENDCHAR

STARTCHAR C154
ENCODING 154
SWIDTH 401 0
DWIDTH 8 0
BBX 8 16 0 -1
BITMAP
33
00
33
33
33
33
33
33
33
33
33
33
1E
00
00
00
ENDCHAR

STARTCHAR C155
ENCODING 155
SWIDTH 401 0
DWIDTH 8 0
BBX 8 16 0 -1
BITMAP
00
00
00
0C
0C
1E
2B
6C
6C
6C
6C
2B
1E
0C
0C
00
ENDCHAR

STARTCHAR C156
ENCODING 156
SWIDTH 401 0
DWIDTH 8 0
BBX 8 16 0 -1
BITMAP
00
00
0E
1B
1B
18
0C
3F
0C
3C
6D
6D
3B
00
00
00
ENDCHAR

STARTCHAR C157
ENCODING 157
SWIDTH 401 0
DWIDTH 8 0
BBX 8 16 0 -1
BITMAP
00
00
61
33
33
16
16
7F
0C
7F
0C
0C
0C
00
00
00
ENDCHAR

STARTCHAR C158
ENCODING 158
SWIDTH 401 0
DWIDTH 8 0
BBX 8 16 0 -1
BITMAP
00
00
3F
31
31
31
3F
30
36
2F
36
35
33
00
00
00
ENDCHAR

STARTCHAR C159
ENCODING 159
SWIDTH 401 0
DWIDTH 8 0
BBX 8 16 0 -1
BITMAP
00
07
0D
0C
0C
3F
0C
0C
0C
0C
0C
6C
6C
38
00
00
ENDCHAR

STARTCHAR C160
ENCODING 160
SWIDTH 401 0
DWIDTH 8 0
BBX 8 16 0 -1
BITMAP
00
0E
18
00
00
3E
63
03
3F
63
63
63
3D
00
00
00
ENDCHAR

STARTCHAR C161
ENCODING 161
SWIDTH 401 0
DWIDTH 8 0
BBX 8 16 0 -1
BITMAP
00
0E
18
00
00
3C
0C
0C
0C
0C
0C
0C
0C
00
00
00
ENDCHAR

STARTCHAR C162
ENCODING 162
SWIDTH 401 0
DWIDTH 8 0
BBX 8 16 0 -1
BITMAP
00
0E
18
00
00
1E
33
61
61
61
61
33
1E
00
00
00
ENDCHAR

STARTCHAR C163
ENCODING 163
SWIDTH 401 0
DWIDTH 8 0
BBX 8 16 0 -1
BITMAP
00
0E
18
00
00
33
33
33
33
33
33
33
1D
00
00
00
ENDCHAR

STARTCHAR C164
ENCODING 164
SWIDTH 401 0
DWIDTH 8 0
BBX 8 16 0 -1
BITMAP
00
1B
36
00
00
5E
33
33
33
33
33
33
33
00
00
00
ENDCHAR

STARTCHAR C165
ENCODING 165
SWIDTH 401 0
DWIDTH 8 0
BBX 8 16 0 -1
BITMAP
1B
36
33
33
3B
3B
2B
2B
2B
37
37
33
33
00
00
00
ENDCHAR

STARTCHAR C166
ENCODING 166
SWIDTH 401 0
DWIDTH 8 0
BBX 8 16 0 -1
BITMAP
00
00
1E
03
1F
33
33
1D
00
7F
00
00
00
00
00
00
ENDCHAR

STARTCHAR C167
ENCODING 167
SWIDTH 401 0
DWIDTH 8 0
BBX 8 16 0 -1
BITMAP
00
00
1E
33
33
33
33
1E
00
7F
00
00
00
00
00
00
ENDCHAR

STARTCHAR C168
ENCODING 168
SWIDTH 401 0
DWIDTH 8 0
BBX 8 16 0 -1
BITMAP
00
00
1C
1C
00
00
0C
0C
18
30
60
63
63
3E
00
00
ENDCHAR

STARTCHAR C169
ENCODING 169
SWIDTH 401 0
DWIDTH 8 0
BBX 8 16 0 -1
BITMAP
00
00
00
00
00
7F
60
60
60
60
00
00
00
00
00
00
ENDCHAR

STARTCHAR C170
ENCODING 170
SWIDTH 401 0
DWIDTH 8 0
BBX 8 16 0 -1
BITMAP
00
00
00
00
00
FF
03
03
03
03
00
00
00
00
00
00
ENDCHAR

STARTCHAR C171
ENCODING 171
SWIDTH 401 0
DWIDTH 8 0
BBX 8 16 0 -1
BITMAP
00
00
73
33
36
36
2C
0C
18
17
31
33
66
67
00
00
ENDCHAR

STARTCHAR C172
ENCODING 172
SWIDTH 401 0
DWIDTH 8 0
BBX 8 16 0 -1
BITMAP
00
00
73
33
36
36
2C
0C
1B
17
2B
2F
63
63
00
00
ENDCHAR

STARTCHAR C173
ENCODING 173
SWIDTH 401 0
DWIDTH 8 0
BBX 8 16 0 -1
BITMAP
00
00
0C
1E
0C
00
0C
0C
0C
1E
1E
1E
1E
1E
00
00
ENDCHAR

STARTCHAR C174
ENCODING 174
SWIDTH 401 0
DWIDTH 8 0
BBX 8 16 0 -1
BITMAP
00
00
00
00
0D
1B
36
6C
36
1B
0D
00
00
00
00
00
ENDCHAR

STARTCHAR C175
ENCODING 175
SWIDTH 401 0
DWIDTH 8 0
BBX 8 16 0 -1
BITMAP
00
00
00
00
6C
36
1B
0D
1B
36
6C
00
00
00
00
00
ENDCHAR

STARTCHAR C176
ENCODING 176
SWIDTH 401 0
DWIDTH 8 0
BBX 8 16 0 -1
BITMAP
CC
00
33
00
CC
00
33
00
CC
00
33
00
CC
00
33
00
ENDCHAR

STARTCHAR C177
ENCODING 177
SWIDTH 401 0
DWIDTH 8 0
BBX 8 16 0 -1
BITMAP
AB
00
AB
00
AB
00
AB
00
AB
00
AB
00
AB
00
AB
00
ENDCHAR

STARTCHAR C178
ENCODING 178
SWIDTH 401 0
DWIDTH 8 0
BBX 8 16 0 -1
BITMAP
AB
66
AB
19
AB
66
AB
19
AB
66
AB
19
AB
66
AB
19
ENDCHAR

STARTCHAR C179
ENCODING 179
SWIDTH 401 0
DWIDTH 8 0
BBX 8 16 0 -1
BITMAP
0C
0C
0C
0C
0C
0C
0C
0C
0C
0C
0C
0C
0C
0C
0C
0C
ENDCHAR

STARTCHAR C180
ENCODING 180
SWIDTH 401 0
DWIDTH 8 0
BBX 8 16 0 -1
BITMAP
0C
0C
0C
0C
0C
0C
0C
FC
0C
0C
0C
0C
0C
0C
0C
0C
ENDCHAR

STARTCHAR C181
ENCODING 181
SWIDTH 401 0
DWIDTH 8 0
BBX 8 16 0 -1
BITMAP
0C
0C
0C
0C
0C
0C
FC
0C
FC
0C
0C
0C
0C
0C
0C
0C
ENDCHAR

STARTCHAR C182
ENCODING 182
SWIDTH 401 0
DWIDTH 8 0
BBX 8 16 0 -1
BITMAP
16
16
16
16
16
16
16
F6
16
16
16
16
16
16
16
16
ENDCHAR

STARTCHAR C183
ENCODING 183
SWIDTH 401 0
DWIDTH 8 0
BBX 8 16 0 -1
BITMAP
00
00
00
00
00
00
00
FE
16
16
16
16
16
16
16
16
ENDCHAR

STARTCHAR C184
ENCODING 184
SWIDTH 401 0
DWIDTH 8 0
BBX 8 16 0 -1
BITMAP
00
00
00
00
00
00
FC
0C
FC
0C
0C
0C
0C
0C
0C
0C
ENDCHAR

STARTCHAR C185
ENCODING 185
SWIDTH 401 0
DWIDTH 8 0
BBX 8 16 0 -1
BITMAP
16
16
16
16
16
16
F6
06
F6
16
16
16
16
16
16
16
ENDCHAR

STARTCHAR C186
ENCODING 186
SWIDTH 401 0
DWIDTH 8 0
BBX 8 16 0 -1
BITMAP
16
16
16
16
16
16
16
16
16
16
16
16
16
16
16
16
ENDCHAR

STARTCHAR C187
ENCODING 187
SWIDTH 401 0
DWIDTH 8 0
BBX 8 16 0 -1
BITMAP
00
00
00
00
00
00
FE
06
F6
16
16
16
16
16
16
16
ENDCHAR

STARTCHAR C188
ENCODING 188
SWIDTH 401 0
DWIDTH 8 0
BBX 8 16 0 -1
BITMAP
16
16
16
16
16
16
F6
06
FE
00
00
00
00
00
00
00
ENDCHAR

STARTCHAR C189
ENCODING 189
SWIDTH 401 0
DWIDTH 8 0
BBX 8 16 0 -1
BITMAP
16
16
16
16
16
16
16
FE
00
00
00
00
00
00
00
00
ENDCHAR

STARTCHAR C190
ENCODING 190
SWIDTH 401 0
DWIDTH 8 0
BBX 8 16 0 -1
BITMAP
0C
0C
0C
0C
0C
0C
FC
0C
FC
00
00
00
00
00
00
00
ENDCHAR

STARTCHAR C191
ENCODING 191
SWIDTH 401 0
DWIDTH 8 0
BBX 8 16 0 -1
BITMAP
00
00
00
00
00
00
00
FC
0C
0C
0C
0C
0C
0C
0C
0C
ENDCHAR

STARTCHAR C192
ENCODING 192
SWIDTH 401 0
DWIDTH 8 0
BBX 8 16 0 -1
BITMAP
0C
0C
0C
0C
0C
0C
0C
0F
00
00
00
00
00
00
00
00
ENDCHAR

STARTCHAR C193
ENCODING 193
SWIDTH 401 0
DWIDTH 8 0
BBX 8 16 0 -1
BITMAP
0C
0C
0C
0C
0C
0C
0C
FF
00
00
00
00
00
00
00
00
ENDCHAR

STARTCHAR C194
ENCODING 194
SWIDTH 401 0
DWIDTH 8 0
BBX 8 16 0 -1
BITMAP
00
00
00
00
00
00
00
FF
0C
0C
0C
0C
0C
0C
0C
0C
ENDCHAR

STARTCHAR C195
ENCODING 195
SWIDTH 401 0
DWIDTH 8 0
BBX 8 16 0 -1
BITMAP
0C
0C
0C
0C
0C
0C
0C
0F
0C
0C
0C
0C
0C
0C
0C
0C
ENDCHAR

STARTCHAR C196
ENCODING 196
SWIDTH 401 0
DWIDTH 8 0
BBX 8 16 0 -1
BITMAP
00
00
00
00
00
00
00
FF
00
00
00
00
00
00
00
00
ENDCHAR

STARTCHAR C197
ENCODING 197
SWIDTH 401 0
DWIDTH 8 0
BBX 8 16 0 -1
BITMAP
0C
0C
0C
0C
0C
0C
0C
FF
0C
0C
0C
0C
0C
0C
0C
0C
ENDCHAR

STARTCHAR C198
ENCODING 198
SWIDTH 401 0
DWIDTH 8 0
BBX 8 16 0 -1
BITMAP
0C
0C
0C
0C
0C
0C
0F
0C
0F
0C
0C
0C
0C
0C
0C
0C
ENDCHAR

STARTCHAR C199
ENCODING 199
SWIDTH 401 0
DWIDTH 8 0
BBX 8 16 0 -1
BITMAP
16
16
16
16
16
16
16
17
16
16
16
16
16
16
16
16
ENDCHAR

STARTCHAR C200
ENCODING 200
SWIDTH 401 0
DWIDTH 8 0
BBX 8 16 0 -1
BITMAP
16
16
16
16
16
16
17
18
1F
00
00
00
00
00
00
00
ENDCHAR

STARTCHAR C201
ENCODING 201
SWIDTH 401 0
DWIDTH 8 0
BBX 8 16 0 -1
BITMAP
00
00
00
00
00
00
1F
18
17
16
16
16
16
16
16
16
ENDCHAR

STARTCHAR C202
ENCODING 202
SWIDTH 401 0
DWIDTH 8 0
BBX 8 16 0 -1
BITMAP
16
16
16
16
16
16
F7
00
FF
00
00
00
00
00
00
00
ENDCHAR

STARTCHAR C203
ENCODING 203
SWIDTH 401 0
DWIDTH 8 0
BBX 8 16 0 -1
BITMAP
00
00
00
00
00
00
FF
00
F7
16
16
16
16
16
16
16
ENDCHAR

STARTCHAR C204
ENCODING 204
SWIDTH 401 0
DWIDTH 8 0
BBX 8 16 0 -1
BITMAP
16
16
16
16
16
16
17
18
17
16
16
16
16
16
16
16
ENDCHAR

STARTCHAR C205
ENCODING 205
SWIDTH 401 0
DWIDTH 8 0
BBX 8 16 0 -1
BITMAP
00
00
00
00
00
00
FF
00
FF
00
00
00
00
00
00
00
ENDCHAR

STARTCHAR C206
ENCODING 206
SWIDTH 401 0
DWIDTH 8 0
BBX 8 16 0 -1
BITMAP
16
16
16
16
16
16
F7
00
F7
16
16
16
16
16
16
16
ENDCHAR

STARTCHAR C207
ENCODING 207
SWIDTH 401 0
DWIDTH 8 0
BBX 8 16 0 -1
BITMAP
0C
0C
0C
0C
0C
0C
FF
00
FF
00
00
00
00
00
00
00
ENDCHAR

STARTCHAR C208
ENCODING 208
SWIDTH 401 0
DWIDTH 8 0
BBX 8 16 0 -1
BITMAP
16
16
16
16
16
16
16
FF
00
00
00
00
00
00
00
00
ENDCHAR

STARTCHAR C209
ENCODING 209
SWIDTH 401 0
DWIDTH 8 0
BBX 8 16 0 -1
BITMAP
00
00
00
00
00
00
FF
00
FF
0C
0C
0C
0C
0C
0C
0C
ENDCHAR

STARTCHAR C210
ENCODING 210
SWIDTH 401 0
DWIDTH 8 0
BBX 8 16 0 -1
BITMAP
00
00
00
00
00
00
00
FF
16
16
16
16
16
16
16
16
ENDCHAR

STARTCHAR C211
ENCODING 211
SWIDTH 401 0
DWIDTH 8 0
BBX 8 16 0 -1
BITMAP
16
16
16
16
16
16
16
1F
00
00
00
00
00
00
00
00
ENDCHAR

STARTCHAR C212
ENCODING 212
SWIDTH 401 0
DWIDTH 8 0
BBX 8 16 0 -1
BITMAP
0C
0C
0C
0C
0C
0C
0F
0C
0F
00
00
00
00
00
00
00
ENDCHAR

STARTCHAR C213
ENCODING 213
SWIDTH 401 0
DWIDTH 8 0
BBX 8 16 0 -1
BITMAP
00
00
00
00
00
00
0F
0C
0F
0C
0C
0C
0C
0C
0C
0C
ENDCHAR

STARTCHAR C214
ENCODING 214
SWIDTH 401 0
DWIDTH 8 0
BBX 8 16 0 -1
BITMAP
00
00
00
00
00
00
00
1F
16
16
16
16
16
16
16
16
ENDCHAR

STARTCHAR C215
ENCODING 215
SWIDTH 401 0
DWIDTH 8 0
BBX 8 16 0 -1
BITMAP
16
16
16
16
16
16
16
FF
16
16
16
16
16
16
16
16
ENDCHAR

STARTCHAR C216
ENCODING 216
SWIDTH 401 0
DWIDTH 8 0
BBX 8 16 0 -1
BITMAP
0C
0C
0C
0C
0C
0C
FF
0C
FF
0C
0C
0C
0C
0C
0C
0C
ENDCHAR

STARTCHAR C217
ENCODING 217
SWIDTH 401 0
DWIDTH 8 0
BBX 8 16 0 -1
BITMAP
0C
0C
0C
0C
0C
0C
0C
FC
00
00
00
00
00
00
00
00
ENDCHAR

STARTCHAR C218
ENCODING 218
SWIDTH 401 0
DWIDTH 8 0
BBX 8 16 0 -1
BITMAP
00
00
00
00
00
00
00
0F
0C
0C
0C
0C
0C
0C
0C
0C
ENDCHAR

STARTCHAR C219
ENCODING 219
SWIDTH 401 0
DWIDTH 8 0
BBX 8 16 0 -1
BITMAP
FF
FF
FF
FF
FF
FF
FF
FF
FF
FF
FF
FF
FF
FF
FF
FF
ENDCHAR

STARTCHAR C220
ENCODING 220
SWIDTH 401 0
DWIDTH 8 0
BBX 8 16 0 -1
BITMAP
00
00
00
00
00
00
00
00
FF
FF
FF
FF
FF
FF
FF
FF
ENDCHAR

STARTCHAR C221
ENCODING 221
SWIDTH 401 0
DWIDTH 8 0
BBX 8 16 0 -1
BITMAP
F8
F8
F8
F8
F8
F8
F8
F8
F8
F8
F8
F8
F8
F8
F8
F8
ENDCHAR

STARTCHAR C222
ENCODING 222
SWIDTH 401 0
DWIDTH 8 0
BBX 8 16 0 -1
BITMAP
0F
0F
0F
0F
0F
0F
0F
0F
0F
0F
0F
0F
0F
0F
0F
0F
ENDCHAR

STARTCHAR C223
ENCODING 223
SWIDTH 401 0
DWIDTH 8 0
BBX 8 16 0 -1
BITMAP
FF
FF
FF
FF
FF
FF
FF
FF
00
00
00
00
00
00
00
00
ENDCHAR

STARTCHAR C224
ENCODING 224
SWIDTH 401 0
DWIDTH 8 0
BBX 8 16 0 -1
BITMAP
00
00
00
00
00
00
0D
3B
33
63
66
6E
3B
00
00
00
ENDCHAR

STARTCHAR C225
ENCODING 225
SWIDTH 401 0
DWIDTH 8 0
BBX 8 16 0 -1
BITMAP
00
00
1E
33
33
33
2E
33
31
31
31
2D
37
00
00
00
ENDCHAR

STARTCHAR C226
ENCODING 226
SWIDTH 401 0
DWIDTH 8 0
BBX 8 16 0 -1
BITMAP
00
00
3F
31
30
30
30
30
30
30
30
30
30
00
00
00
ENDCHAR

STARTCHAR C227
ENCODING 227
SWIDTH 401 0
DWIDTH 8 0
BBX 8 16 0 -1
BITMAP
00
00
00
00
00
00
3F
5B
1B
16
36
36
63
00
00
00
ENDCHAR

STARTCHAR C228
ENCODING 228
SWIDTH 401 0
DWIDTH 8 0
BBX 8 16 0 -1
BITMAP
00
00
7F
61
30
18
0C
06
0C
18
30
61
7F
00
00
00
ENDCHAR

STARTCHAR C229
ENCODING 229
SWIDTH 401 0
DWIDTH 8 0
BBX 8 16 0 -1
BITMAP
00
00
00
00
01
07
1E
33
63
63
63
66
3C
00
00
00
ENDCHAR

STARTCHAR C230
ENCODING 230
SWIDTH 401 0
DWIDTH 8 0
BBX 8 16 0 -1
BITMAP
00
00
00
00
00
1B
1B
1B
36
36
36
35
5B
60
60
00
ENDCHAR

STARTCHAR C231
ENCODING 231
SWIDTH 401 0
DWIDTH 8 0
BBX 8 16 0 -1
BITMAP
00
00
00
00
00
1F
76
06
0C
0C
0C
0C
07
00
00
00
ENDCHAR

STARTCHAR C232
ENCODING 232
SWIDTH 401 0
DWIDTH 8 0
BBX 8 16 0 -1
BITMAP
00
00
1E
0C
1E
2B
6D
6D
6D
2B
1E
0C
1E
00
00
00
ENDCHAR

STARTCHAR C233
ENCODING 233
SWIDTH 401 0
DWIDTH 8 0
BBX 8 16 0 -1
BITMAP
00
00
1E
33
61
61
55
5D
55
61
61
33
1E
00
00
00
ENDCHAR

STARTCHAR C234
ENCODING 234
SWIDTH 401 0
DWIDTH 8 0
BBX 8 16 0 -1
BITMAP
00
00
1E
33
33
33
33
33
33
16
16
55
77
00
00
00
ENDCHAR

STARTCHAR C235
ENCODING 235
SWIDTH 401 0
DWIDTH 8 0
BBX 8 16 0 -1
BITMAP
00
00
07
0D
06
1E
33
33
63
63
66
66
3C
00
00
00
ENDCHAR

STARTCHAR C236
ENCODING 236
SWIDTH 401 0
DWIDTH 8 0
BBX 8 16 0 -1
BITMAP
00
00
00
00
00
00
37
6D
6D
37
00
00
00
00
00
00
ENDCHAR

STARTCHAR C237
ENCODING 237
SWIDTH 401 0
DWIDTH 8 0
BBX 8 16 0 -1
BITMAP
00
00
01
01
03
1F
33
35
65
6D
6B
5B
3E
30
60
00
ENDCHAR

STARTCHAR C238
ENCODING 238
SWIDTH 401 0
DWIDTH 8 0
BBX 8 16 0 -1
BITMAP
00
00
00
00
00
0F
18
30
1E
30
60
60
3E
00
00
00
ENDCHAR

STARTCHAR C239
ENCODING 239
SWIDTH 401 0
DWIDTH 8 0
BBX 8 16 0 -1
BITMAP
00
00
00
00
3E
63
63
63
63
63
63
63
63
00
00
00
ENDCHAR

STARTCHAR C240
ENCODING 240
SWIDTH 401 0
DWIDTH 8 0
BBX 8 16 0 -1
BITMAP
00
00
00
00
00
7F
00
7F
00
7F
00
00
00
00
00
00
ENDCHAR

STARTCHAR C241
ENCODING 241
SWIDTH 401 0
DWIDTH 8 0
BBX 8 16 0 -1
BITMAP
00
00
00
0C
0C
0C
7F
0C
0C
0C
00
7F
00
00
00
00
ENDCHAR

STARTCHAR C242
ENCODING 242
SWIDTH 401 0
DWIDTH 8 0
BBX 8 16 0 -1
BITMAP
00
00
00
00
38
0E
03
0E
38
00
00
7F
00
00
00
00
ENDCHAR

STARTCHAR C243
ENCODING 243
SWIDTH 401 0
DWIDTH 8 0
BBX 8 16 0 -1
BITMAP
00
00
00
00
07
1C
70
1C
07
00
00
7F
00
00
00
00
ENDCHAR

STARTCHAR C244
ENCODING 244
SWIDTH 401 0
DWIDTH 8 0
BBX 8 16 0 -1
BITMAP
00
00
07
0D
0D
0C
0C
0C
0C
0C
0C
0C
0C
0C
0C
0C
ENDCHAR

STARTCHAR C245
ENCODING 245
SWIDTH 401 0
DWIDTH 8 0
BBX 8 16 0 -1
BITMAP
0C
0C
0C
0C
0C
0C
0C
0C
0C
0C
0C
6C
6C
38
00
00
ENDCHAR

STARTCHAR C246
ENCODING 246
SWIDTH 401 0
DWIDTH 8 0
BBX 8 16 0 -1
BITMAP
00
00
00
0C
1E
0C
00
7F
00
0C
1E
0C
00
00
00
00
ENDCHAR

STARTCHAR C247
ENCODING 247
SWIDTH 401 0
DWIDTH 8 0
BBX 8 16 0 -1
BITMAP
00
00
00
00
00
3B
6E
00
3B
6E
00
00
00
00
00
00
ENDCHAR

STARTCHAR C248
ENCODING 248
SWIDTH 401 0
DWIDTH 8 0
BBX 8 16 0 -1
BITMAP
00
38
6C
6C
38
00
00
00
00
00
00
00
00
00
00
00
ENDCHAR

STARTCHAR C249
ENCODING 249
SWIDTH 401 0
DWIDTH 8 0
BBX 8 16 0 -1
BITMAP
00
00
00
00
00
00
0C
1E
0C
00
00
00
00
00
00
00
ENDCHAR

STARTCHAR C250
ENCODING 250
SWIDTH 401 0
DWIDTH 8 0
BBX 8 16 0 -1
BITMAP
00
00
00
00
00
00
00
0C
00
00
00
00
00
00
00
00
ENDCHAR

STARTCHAR C251
ENCODING 251
SWIDTH 401 0
DWIDTH 8 0
BBX 8 16 0 -1
BITMAP
07
06
06
06
0C
0C
0C
0C
18
18
58
30
30
30
00
00
ENDCHAR

STARTCHAR C252
ENCODING 252
SWIDTH 401 0
DWIDTH 8 0
BBX 8 16 0 -1
BITMAP
00
5C
36
36
36
36
36
00
00
00
00
00
00
00
00
00
ENDCHAR

STARTCHAR C253
ENCODING 253
SWIDTH 401 0
DWIDTH 8 0
BBX 8 16 0 -1
BITMAP
00
38
6C
0C
18
30
7C
00
00
00
00
00
00
00
00
00
ENDCHAR

STARTCHAR C254
ENCODING 254
SWIDTH 401 0
DWIDTH 8 0
BBX 8 16 0 -1
BITMAP
00
00
00
00
00
00
3F
3F
00
00
00
00
00
00
00
00
ENDCHAR

STARTCHAR C255
ENCODING 255
SWIDTH 401 0
DWIDTH 8 0
BBX 8 16 0 -1
BITMAP
00
00
00
00
00
00
00
00
00
00
00
00
00
00
00
00
ENDCHAR
ENDFONT
